<?xml version="1.0" encoding="UTF-8" standalone="no"?>
<!DOCTYPE svg PUBLIC "-//W3C//DTD SVG 1.1//EN" "http://www.w3.org/Graphics/SVG/1.1/DTD/svg11.dtd">
<!-- Created with Vectornator (http://vectornator.io/) -->
<svg height="100%" stroke-miterlimit="10" style="fill-rule:nonzero;clip-rule:evenodd;stroke-linecap:round;stroke-linejoin:round;" version="1.1" viewBox="0 0 64 64" width="100%" xml:space="preserve" xmlns="http://www.w3.org/2000/svg" xmlns:vectornator="http://vectornator.io" xmlns:xlink="http://www.w3.org/1999/xlink">
<defs/>
<g id="Untitled" vectornator:layerName="Untitled">
<path d="M31.375 12.5312L10.125 30.2187C9.40649 30.8175 9.8147 32 10.75 32L15 32C15.5523 32 16 32.4477 16 33L16 51C16 51.5523 16.4477 52 17 52L27 52C27.5523 52 28 51.5523 28 51L28 41C28 40.4477 28.4477 40 29 40L35 40C35.5523 40 36 40.4477 36 41L36 51C36 51.5523 36.4477 52 37 52L47 52C47.5523 52 48 51.5523 48 51L48 33C48 32.4477 48.4477 32 49 32L53.25 32C54.1853 32 54.5935 30.8175 53.875 30.2187L32.625 12.5312C32.2542 12.2222 31.7458 12.2222 31.375 12.5312Z" fill="#000000" fill-rule="nonzero" opacity="1" stroke="none" vectornator:layerName="Curve 1"/>
</g>
</svg>
